<?xml version="1.0" standalone="no"?>
<!DOCTYPE svg PUBLIC "-//W3C//DTD SVG 20010904//EN"
 "http://www.w3.org/TR/2001/REC-SVG-20010904/DTD/svg10.dtd">
<svg version="1.0" xmlns="http://www.w3.org/2000/svg"
 width="700.000000pt" height="700.000000pt" viewBox="0 0 700.000000 700.000000"
 preserveAspectRatio="xMidYMid meet">
<metadata>
Created by potrace 1.14, written by Peter Selinger 2001-2017
</metadata>
<g transform="translate(0.000000,700.000000) scale(0.100000,-0.100000)"
fill="#000000" stroke="none">
<path d="M3289 6766 c-2 -2 -47 -7 -99 -10 -53 -4 -105 -8 -115 -10 -11 -2
-47 -6 -80 -10 -52 -6 -94 -13 -255 -42 -148 -28 -512 -136 -645 -194 -27 -11
-68 -29 -90 -38 -89 -37 -317 -155 -419 -217 -247 -149 -438 -298 -642 -500
-288 -286 -486 -564 -648 -907 -80 -169 -180 -449 -200 -558 -2 -14 -11 -56
-20 -95 -24 -100 -32 -152 -55 -365 -9 -77 -6 -477 3 -540 3 -19 8 -55 10 -80
51 -449 238 -928 524 -1344 l61 -88 -4 -77 c-3 -42 -7 -125 -10 -186 -2 -60
-7 -155 -10 -210 -2 -55 -7 -156 -10 -225 -3 -69 -8 -168 -10 -220 -3 -52 -7
-144 -10 -205 -3 -60 -7 -171 -10 -245 -4 -74 -8 -152 -10 -172 -1 -21 1 -38
6 -38 4 0 61 27 126 61 65 34 197 102 293 151 96 50 236 122 310 161 74 38
211 109 303 157 l169 87 107 -53 c386 -190 833 -315 1296 -361 100 -10 586
-11 680 -1 304 32 587 89 818 165 48 16 87 28 87 26 0 -2 -36 -93 -79 -201
-116 -288 -118 -295 -102 -326 16 -30 56 -46 91 -35 29 8 670 263 717 284 17
8 35 15 41 15 5 0 20 11 33 24 19 19 24 36 24 75 l0 51 -43 0 c-82 0 -112 30
-112 113 0 20 -3 37 -7 38 -100 7 -109 9 -125 30 -12 13 -18 38 -18 68 l1 46
74 38 75 37 0 -33 c0 -31 2 -32 38 -33 73 -2 82 -4 98 -29 9 -14 17 -47 18
-72 l1 -47 46 -2 c72 -3 92 -19 104 -83 2 -9 4 -17 4 -18 2 -2 981 979 981
983 0 2 -52 56 -116 119 -70 70 -114 121 -111 129 3 8 22 37 43 66 l37 52 128
-128 128 -128 22 20 c51 44 240 238 247 253 5 9 7 22 6 29 -1 6 -2 17 -3 23 0
6 -67 78 -148 161 -82 82 -149 151 -151 152 -1 2 15 41 36 87 76 164 120 287
166 459 43 161 61 248 71 329 3 25 7 56 10 69 20 106 27 477 12 652 -5 52 -10
97 -12 100 -1 3 -6 31 -9 64 -22 184 -111 502 -204 721 -43 102 -175 350 -236
445 -63 97 -186 270 -212 296 -6 7 -39 46 -75 88 -90 108 -296 307 -420 405
-391 312 -826 533 -1319 670 -100 27 -195 49 -295 66 -16 3 -41 8 -55 10 -14
3 -35 7 -46 9 -20 4 -157 21 -254 32 -58 6 -545 15 -551 10z"/>
</g>
</svg>
